<svg width="216" height="216" viewBox="0 0 216 216" fill="none" xmlns="http://www.w3.org/2000/svg">
<path d="M54.149 21.7375C54.149 16.0205 56.42 10.5377 60.4625 6.49519C64.505 2.45269 69.9878 0.181641 75.7048 0.181641H140.372C146.089 0.181641 151.572 2.45269 155.615 6.49519C159.657 10.5377 161.928 16.0205 161.928 21.7375V43.2933H205.04C207.898 43.2933 210.64 44.4288 212.661 46.4501C214.682 48.4713 215.818 51.2127 215.818 54.0712C215.818 56.9297 214.682 59.6711 212.661 61.6923C210.64 63.7136 207.898 64.8491 205.04 64.8491H193.518L184.174 195.715C183.787 201.153 181.353 206.243 177.363 209.958C173.374 213.674 168.124 215.74 162.672 215.74H53.3945C47.9424 215.74 42.6928 213.674 38.703 209.958C34.7132 206.243 32.2797 201.153 31.8926 195.715L22.5697 64.8491H11.0373C8.17883 64.8491 5.43743 63.7136 3.41618 61.6923C1.39493 59.6711 0.259399 56.9297 0.259399 54.0712C0.259399 51.2127 1.39493 48.4713 3.41618 46.4501C5.43743 44.4288 8.17883 43.2933 11.0373 43.2933H54.149V21.7375ZM75.7048 43.2933H140.372V21.7375H75.7048V43.2933ZM44.1686 64.8491L53.4053 194.184H162.683L171.919 64.8491H44.1686ZM86.4827 86.4049C89.3412 86.4049 92.0826 87.5405 94.1038 89.5617C96.1251 91.583 97.2606 94.3244 97.2606 97.1828V161.85C97.2606 164.709 96.1251 167.45 94.1038 169.471C92.0826 171.493 89.3412 172.628 86.4827 172.628C83.6242 172.628 80.8828 171.493 78.8616 169.471C76.8403 167.45 75.7048 164.709 75.7048 161.85V97.1828C75.7048 94.3244 76.8403 91.583 78.8616 89.5617C80.8828 87.5405 83.6242 86.4049 86.4827 86.4049ZM129.594 86.4049C132.453 86.4049 135.194 87.5405 137.215 89.5617C139.237 91.583 140.372 94.3244 140.372 97.1828V161.85C140.372 164.709 139.237 167.45 137.215 169.471C135.194 171.493 132.453 172.628 129.594 172.628C126.736 172.628 123.994 171.493 121.973 169.471C119.952 167.45 118.816 164.709 118.816 161.85V97.1828C118.816 94.3244 119.952 91.583 121.973 89.5617C123.994 87.5405 126.736 86.4049 129.594 86.4049Z" fill="#0D0D0D"/>
</svg>
